<?xml version="1.0" encoding="utf-8"?>
<!-- Generator: Adobe Illustrator 27.0.0, SVG Export Plug-In . SVG Version: 6.00 Build 0)  -->
<svg version="1.1" id="Livello_1" xmlns="http://www.w3.org/2000/svg" xmlns:xlink="http://www.w3.org/1999/xlink" x="0px" y="0px"
	 viewBox="0 0 841.89 595.28" style="enable-background:new 0 0 841.89 595.28;" xml:space="preserve">
<g>
	<path d="M293.04,177.22l-24.43,99.59l-19.33,83.75l-5.1,0.54l-1.61,12.88l-27.38,7.52l-2.95-72.48l-5.37-60.66l-26.31,59.05
		l-18.79,41.07l-2.68,12.08l-24.43,2.15l6.71-91.8l9.13-90.46l28.45-5.64l-10.2,84.55l-1.34,11.54l8.32-15.84l19.33-43.75
		l31.94-1.61l-0.27,0.27h0.27l8.86,74.62l8.86-28.72l20.13-75.96L293.04,177.22z"/>
	<path d="M365.24,248.89l5.64,7.52l-8.05,2.68l-5.37,24.96l-16.64,93.41L318,370.49l5.1-37.31l8.32-62.81l-25.5,10.74l-16.64,101.2
		l-23.35-7.25l11.81-88.04l-11.81-5.1l13.96-9.66l13.42-89.65l29.8,7.52l-11.54,62.27l25.5-14.5l5.1-32.75l9.66-47.51l31.14,8.59
		l-14.76,65.5L365.24,248.89z"/>
	<path d="M416.72,192.26l-21.21,101.2l-16.37,81.6L354.71,367l27.38-182.8L416.72,192.26z"/>
	<path d="M511.53,230.1l-48.05,48.58l15.84,21.47l24.16,38.92l-18.52,31.41c-0.18-1.07-1.39-3.58-3.62-7.52
		c-2.24-3.93-4.74-8.28-7.52-13.02c-2.78-4.74-5.5-9.3-8.19-13.69c-2.68-4.38-4.56-7.38-5.64-8.99c-0.54-1.07-1.57-2.77-3.09-5.1
		c-1.52-2.32-3.27-5.05-5.23-8.19c-1.97-3.13-4.12-6.48-6.44-10.07c-2.33-3.58-4.65-7.07-6.98-10.47l-17.98,83.75l-23.35-12.62
		l21.74-117.3l3.76-21.21l-8.32,0.54l-19.06-21.74l44.56-9.13l69.79-17.72l33.55,25.23L511.53,230.1z M447.65,261.24
		c4.12-4.47,8.95-9.66,14.5-15.57c5.54-5.91,10.82-11.54,15.84-16.91c5.91-6.26,11.81-12.7,17.72-19.33l-41.61,8.86l-9.66,43.22
		L447.65,261.24z"/>
	<path d="M626.69,211.85l-0.27,13.69l-9.93,18.25l1.88,2.15l-3.76,1.34l-24.43,45.9l-33.29,66.57l-3.76-0.54l1.88,5.91l-18.79,15.57
		l-7.78-14.76l-24.96-34.9l-4.83,0.27l-12.62-27.11l31.41-56.64l24.96-44.02l1.88-4.03l25.5-14.5l2.15,3.76l23.62,30.06l2.42,2.95
		l8.59-15.57L626.69,211.85z M537.57,334.52l37.85-72.21l9.93-17.72l-22.55-22.82l-44.83,79.99l-0.81,1.34l2.95,4.03L537.57,334.52z
		"/>
	<path d="M728.15,211.85l-0.27,13.69l-9.93,18.25l1.88,2.15l-3.76,1.34l-24.43,45.9l-33.29,66.57l-3.76-0.54l1.88,5.91l-18.79,15.57
		l-7.78-14.76l-24.96-34.9l-4.83,0.27l-12.62-27.11l31.41-56.64l24.96-44.02l1.88-4.03l25.5-14.5l2.15,3.76l23.62,30.06l2.42,2.95
		l8.59-15.57L728.15,211.85z M639.03,334.52l37.85-72.21l9.93-17.72l-22.55-22.82l-44.83,79.99l-0.81,1.34l2.95,4.03L639.03,334.52z
		"/>
</g>
</svg>
